STARTFONT 2.1
FONT foobar
SIZE 25 75 75
FONTBOUNDINGBOX 24 8 0 -2
STARTPROPERTIES 5
FACE_NAME "Liberation Serif Regular"
FAMILY_NAME "Liberation Serif"
WEIGHT_NAME "Regular"
FONT_DESCENT -443
FONT_ASCENT 1825
ENDPROPERTIES
CHARS 100
STARTCHAR space
ENCODING 32
SWIDTH 6720 0
DWIDTH 7 0
BBX 1 1 0 0
BITMAP
00
ENDCHAR
STARTCHAR exclam
ENCODING 33
SWIDTH 8640 0
DWIDTH 9 0
BBX 3 8 0 0
BITMAP
E0
E0
C0
C0
40
40
00
E0
ENDCHAR
STARTCHAR quotedbl
ENCODING 34
SWIDTH 10560 0
DWIDTH 11 0
BBX 7 3 0 5
BITMAP
C6
C6
84
ENDCHAR
STARTCHAR numbersign
ENCODING 35
SWIDTH 12480 0
DWIDTH 13 0
BBX 13 8 0 0
BITMAP
0420
0860
FFF8
1840
10C0
FFF8
3080
2100
ENDCHAR
STARTCHAR dollar
ENCODING 36
SWIDTH 12480 0
DWIDTH 13 0
BBX 11 10 0 -1
BITMAP
0400
3FC0
E440
E400
3F00
05E0
0460
8460
FF80
0400
ENDCHAR
STARTCHAR percent
ENCODING 37
SWIDTH 21120 0
DWIDTH 22 0
BBX 20 8 0 0
BITMAP
7E0300
C30400
C31800
7E2000
00C7E0
010C30
060C30
0807E0
ENDCHAR
STARTCHAR ampersand
ENCODING 38
SWIDTH 19200 0
DWIDTH 20 0
BBX 19 8 0 0
BITMAP
1FE000
387000
186000
0F8780
73C300
E07600
E01C00
3FE7C0
ENDCHAR
STARTCHAR quotesingle
ENCODING 39
SWIDTH 4800 0
DWIDTH 5 0
BBX 3 3 0 5
BITMAP
C0
C0
40
ENDCHAR
STARTCHAR parenleft
ENCODING 40
SWIDTH 8640 0
DWIDTH 9 0
BBX 7 10 0 -2
BITMAP
0E
30
60
E0
E0
E0
E0
60
30
0E
ENDCHAR
STARTCHAR parenright
ENCODING 41
SWIDTH 8640 0
DWIDTH 9 0
BBX 7 10 0 -2
BITMAP
C0
30
1C
0C
0C
0C
0C
1C
30
C0
ENDCHAR
STARTCHAR asterisk
ENCODING 42
SWIDTH 12480 0
DWIDTH 13 0
BBX 11 5 0 3
BITMAP
0400
64C0
1F00
64C0
0400
ENDCHAR
STARTCHAR plus
ENCODING 43
SWIDTH 14400 0
DWIDTH 15 0
BBX 12 5 0 1
BITMAP
0200
0200
FFF0
0200
0200
ENDCHAR
STARTCHAR comma
ENCODING 44
SWIDTH 6720 0
DWIDTH 7 0
BBX 4 3 0 -2
BITMAP
70
30
C0
ENDCHAR
STARTCHAR hyphen
ENCODING 45
SWIDTH 8640 0
DWIDTH 9 0
BBX 7 1 0 2
BITMAP
FE
ENDCHAR
STARTCHAR period
ENCODING 46
SWIDTH 6720 0
DWIDTH 7 0
BBX 3 1 0 0
BITMAP
E0
ENDCHAR
STARTCHAR slash
ENCODING 47
SWIDTH 6720 0
DWIDTH 7 0
BBX 7 8 0 0
BITMAP
02
04
08
18
10
20
40
C0
ENDCHAR
STARTCHAR zero
ENCODING 48
SWIDTH 12480 0
DWIDTH 13 0
BBX 11 8 0 0
BITMAP
3F80
60C0
C060
C060
C060
C0E0
60C0
3F80
ENDCHAR
STARTCHAR one
ENCODING 49
SWIDTH 12480 0
DWIDTH 13 0
BBX 9 8 0 0
BITMAP
0C00
7C00
0C00
0C00
0C00
0C00
0C00
7F00
ENDCHAR
STARTCHAR two
ENCODING 50
SWIDTH 12480 0
DWIDTH 13 0
BBX 11 8 0 0
BITMAP
7F80
40C0
00C0
01C0
0300
0C00
3000
FFE0
ENDCHAR
STARTCHAR three
ENCODING 51
SWIDTH 12480 0
DWIDTH 13 0
BBX 11 8 0 0
BITMAP
7F80
40C0
01C0
1F80
00E0
0060
80E0
FF80
ENDCHAR
STARTCHAR four
ENCODING 52
SWIDTH 12480 0
DWIDTH 13 0
BBX 12 8 0 0
BITMAP
0180
0780
0980
3180
4180
FFF0
0180
0180
ENDCHAR
STARTCHAR five
ENCODING 53
SWIDTH 12480 0
DWIDTH 13 0
BBX 10 8 0 0
BITMAP
FF80
8000
8000
FF00
01C0
00C0
81C0
FF00
ENDCHAR
STARTCHAR six
ENCODING 54
SWIDTH 12480 0
DWIDTH 13 0
BBX 11 8 0 0
BITMAP
1FC0
6040
E000
FFC0
C060
E060
6060
1F80
ENDCHAR
STARTCHAR seven
ENCODING 55
SWIDTH 12480 0
DWIDTH 13 0
BBX 10 8 0 0
BITMAP
FFC0
8080
0100
0200
0400
0800
1000
2000
ENDCHAR
STARTCHAR eight
ENCODING 56
SWIDTH 12480 0
DWIDTH 13 0
BBX 11 8 0 0
BITMAP
3F80
60C0
60C0
3F80
C0E0
C060
C0E0
3F80
ENDCHAR
STARTCHAR nine
ENCODING 57
SWIDTH 12480 0
DWIDTH 13 0
BBX 11 8 0 0
BITMAP
3F80
C0C0
C0E0
C060
7FE0
00E0
40C0
7F00
ENDCHAR
STARTCHAR colon
ENCODING 58
SWIDTH 6720 0
DWIDTH 7 0
BBX 3 5 0 0
BITMAP
E0
00
00
00
E0
ENDCHAR
STARTCHAR semicolon
ENCODING 59
SWIDTH 6720 0
DWIDTH 7 0
BBX 4 7 0 -2
BITMAP
70
00
00
00
70
10
E0
ENDCHAR
STARTCHAR less
ENCODING 60
SWIDTH 14400 0
DWIDTH 15 0
BBX 12 5 0 1
BITMAP
0070
1F80
E000
1F80
0070
ENDCHAR
STARTCHAR equal
ENCODING 61
SWIDTH 14400 0
DWIDTH 15 0
BBX 12 3 0 2
BITMAP
FFF0
0000
FFF0
ENDCHAR
STARTCHAR greater
ENCODING 62
SWIDTH 14400 0
DWIDTH 15 0
BBX 12 5 0 1
BITMAP
F000
0F80
0070
0F80
F000
ENDCHAR
STARTCHAR question
ENCODING 63
SWIDTH 11520 0
DWIDTH 12 0
BBX 9 8 0 0
BITMAP
FF00
8180
0180
0380
1C00
1800
0000
1C00
ENDCHAR
STARTCHAR at
ENCODING 64
SWIDTH 23040 0
DWIDTH 24 0
BBX 22 10 0 -2
BITMAP
01FFC0
0E0038
300008
607E0C
418608
C30C30
43FFC0
600000
380000
07FF80
ENDCHAR
STARTCHAR A
ENCODING 65
SWIDTH 18240 0
DWIDTH 19 0
BBX 19 8 0 0
BITMAP
00E000
017000
023000
061800
041C00
0FFE00
100700
780FC0
ENDCHAR
STARTCHAR B
ENCODING 66
SWIDTH 16320 0
DWIDTH 17 0
BBX 15 8 0 0
BITMAP
7FF8
301C
3018
3FF8
300E
300E
300E
7FF8
ENDCHAR
STARTCHAR C
ENCODING 67
SWIDTH 16320 0
DWIDTH 17 0
BBX 15 8 0 0
BITMAP
0FFE
7002
E000
E000
E000
E000
3002
0FFE
ENDCHAR
STARTCHAR D
ENCODING 68
SWIDTH 18240 0
DWIDTH 19 0
BBX 17 8 0 0
BITMAP
7FF800
300E00
300300
300380
300380
300300
300600
7FF800
ENDCHAR
STARTCHAR E
ENCODING 69
SWIDTH 15360 0
DWIDTH 16 0
BBX 14 8 0 0
BITMAP
7FF8
3008
3040
3FC0
3040
3000
3004
7FF8
ENDCHAR
STARTCHAR F
ENCODING 70
SWIDTH 13440 0
DWIDTH 14 0
BBX 13 8 0 0
BITMAP
7FF8
3008
3020
3FE0
3020
3000
3000
7C00
ENDCHAR
STARTCHAR G
ENCODING 71
SWIDTH 18240 0
DWIDTH 19 0
BBX 17 8 0 0
BITMAP
0FFE00
700200
E00000
E00000
E00F00
E00600
700600
0FFE00
ENDCHAR
STARTCHAR H
ENCODING 72
SWIDTH 18240 0
DWIDTH 19 0
BBX 17 8 0 0
BITMAP
7C1F00
300E00
300E00
3FFE00
300E00
300E00
300E00
7C1F00
ENDCHAR
STARTCHAR I
ENCODING 73
SWIDTH 8640 0
DWIDTH 9 0
BBX 7 8 0 0
BITMAP
7C
38
38
38
38
38
38
7C
ENDCHAR
STARTCHAR J
ENCODING 74
SWIDTH 9600 0
DWIDTH 10 0
BBX 9 8 0 0
BITMAP
1F00
0E00
0E00
0E00
0E00
0E00
8C00
F800
ENDCHAR
STARTCHAR K
ENCODING 75
SWIDTH 18240 0
DWIDTH 19 0
BBX 18 8 0 0
BITMAP
7C0E00
303000
30C000
338000
3CE000
307000
301C00
7C0780
ENDCHAR
STARTCHAR L
ENCODING 76
SWIDTH 15360 0
DWIDTH 16 0
BBX 13 8 0 0
BITMAP
7C00
3000
3000
3000
3000
3000
3008
7FF8
ENDCHAR
STARTCHAR M
ENCODING 77
SWIDTH 22080 0
DWIDTH 23 0
BBX 21 8 0 0
BITMAP
7800F0
2C0160
260260
230460
238860
21D060
20E060
7841F0
ENDCHAR
STARTCHAR N
ENCODING 78
SWIDTH 18240 0
DWIDTH 19 0
BBX 17 8 0 0
BITMAP
7C0F00
2E0200
230200
21C200
206200
203A00
200E00
780600
ENDCHAR
STARTCHAR O
ENCODING 79
SWIDTH 18240 0
DWIDTH 19 0
BBX 17 8 0 0
BITMAP
0FF800
700600
E00300
E00380
E00380
E00300
700600
0FF800
ENDCHAR
STARTCHAR P
ENCODING 80
SWIDTH 13440 0
DWIDTH 14 0
BBX 12 8 0 0
BITMAP
7FE0
3030
3030
3030
3FC0
3000
3000
7C00
ENDCHAR
STARTCHAR Q
ENCODING 81
SWIDTH 18240 0
DWIDTH 19 0
BBX 17 10 0 -2
BITMAP
0FF800
700600
E00300
E00380
E00380
E00300
700600
0FF800
003800
000F80
ENDCHAR
STARTCHAR R
ENCODING 82
SWIDTH 16320 0
DWIDTH 17 0
BBX 16 8 0 0
BITMAP
7FF000
301800
301800
303000
3FC000
307000
303800
7C0E00
ENDCHAR
STARTCHAR S
ENCODING 83
SWIDTH 13440 0
DWIDTH 14 0
BBX 11 8 0 0
BITMAP
7FC0
C040
E000
7E00
03C0
0060
8060
FF80
ENDCHAR
STARTCHAR T
ENCODING 84
SWIDTH 15360 0
DWIDTH 16 0
BBX 15 8 0 0
BITMAP
FFFE
8182
0180
0180
0180
0180
0180
07E0
ENDCHAR
STARTCHAR U
ENCODING 85
SWIDTH 18240 0
DWIDTH 19 0
BBX 17 8 0 0
BITMAP
780F00
300200
300200
300200
300200
300200
380600
0FF800
ENDCHAR
STARTCHAR V
ENCODING 86
SWIDTH 18240 0
DWIDTH 19 0
BBX 18 8 0 0
BITMAP
7C0380
1C0300
0E0600
070400
030800
019000
00E000
004000
ENDCHAR
STARTCHAR W
ENCODING 87
SWIDTH 24000 0
DWIDTH 25 0
BBX 24 8 0 0
BITMAP
7C000E00
380C0400
181C0C00
0C361800
06231000
0741A000
0381E000
0100C000
ENDCHAR
STARTCHAR X
ENCODING 88
SWIDTH 18240 0
DWIDTH 19 0
BBX 17 8 0 0
BITMAP
7C0E00
0E1800
076000
01C000
03E000
043000
181C00
701F00
ENDCHAR
STARTCHAR Y
ENCODING 89
SWIDTH 18240 0
DWIDTH 19 0
BBX 18 8 0 0
BITMAP
7C0380
0E0600
070C00
039000
00E000
00E000
00E000
03F000
ENDCHAR
STARTCHAR Z
ENCODING 90
SWIDTH 15360 0
DWIDTH 16 0
BBX 13 8 0 0
BITMAP
7FF8
40E0
01C0
0380
0E00
1C00
3008
FFF8
ENDCHAR
STARTCHAR bracketleft
ENCODING 91
SWIDTH 8640 0
DWIDTH 9 0
BBX 6 9 0 -1
BITMAP
FC
C0
C0
C0
C0
C0
C0
C0
FC
ENDCHAR
STARTCHAR backslash
ENCODING 92
SWIDTH 6720 0
DWIDTH 7 0
BBX 7 8 0 0
BITMAP
C0
40
20
10
18
08
04
02
ENDCHAR
STARTCHAR bracketright
ENCODING 93
SWIDTH 8640 0
DWIDTH 9 0
BBX 6 9 0 -1
BITMAP
FC
0C
0C
0C
0C
0C
0C
0C
FC
ENDCHAR
STARTCHAR asciicircum
ENCODING 94
SWIDTH 11520 0
DWIDTH 12 0
BBX 12 6 0 2
BITMAP
0600
0900
0880
10C0
2060
4020
ENDCHAR
STARTCHAR underscore
ENCODING 95
SWIDTH 12480 0
DWIDTH 13 0
BBX 13 1 0 -2
BITMAP
FFF8
ENDCHAR
STARTCHAR grave
ENCODING 96
SWIDTH 8640 0
DWIDTH 9 0
BBX 5 2 0 6
BITMAP
E0
10
ENDCHAR
STARTCHAR a
ENCODING 97
SWIDTH 11520 0
DWIDTH 12 0
BBX 10 5 0 0
BITMAP
7F00
0180
7F80
C180
FF80
ENDCHAR
STARTCHAR b
ENCODING 98
SWIDTH 12480 0
DWIDTH 13 0
BBX 12 8 0 0
BITMAP
7000
3000
3000
3FC0
3070
3030
3070
3FC0
ENDCHAR
STARTCHAR c
ENCODING 99
SWIDTH 11520 0
DWIDTH 12 0
BBX 10 5 0 0
BITMAP
3F80
E000
C000
E000
3FC0
ENDCHAR
STARTCHAR d
ENCODING 100
SWIDTH 12480 0
DWIDTH 13 0
BBX 12 8 0 0
BITMAP
01C0
00C0
00C0
3FC0
E0C0
C0C0
C0C0
7FE0
ENDCHAR
STARTCHAR e
ENCODING 101
SWIDTH 11520 0
DWIDTH 12 0
BBX 10 5 0 0
BITMAP
3F00
C1C0
FFC0
E000
3F80
ENDCHAR
STARTCHAR f
ENCODING 102
SWIDTH 8640 0
DWIDTH 9 0
BBX 8 8 0 0
BITMAP
1F00
3000
3000
FE00
3000
3000
3000
7C00
ENDCHAR
STARTCHAR g
ENCODING 103
SWIDTH 12480 0
DWIDTH 13 0
BBX 12 7 0 -2
BITMAP
7FC0
60C0
7F80
6000
7FE0
C020
7FC0
ENDCHAR
STARTCHAR h
ENCODING 104
SWIDTH 12480 0
DWIDTH 13 0
BBX 13 8 0 0
BITMAP
7000
3000
3000
3FE0
3060
3060
3060
3870
ENDCHAR
STARTCHAR i
ENCODING 105
SWIDTH 6720 0
DWIDTH 7 0
BBX 6 7 0 0
BITMAP
70
00
70
30
30
30
78
ENDCHAR
STARTCHAR j
ENCODING 106
SWIDTH 6720 0
DWIDTH 7 0
BBX 6 9 0 -2
BITMAP
1C
00
1C
0C
0C
0C
0C
0C
F8
ENDCHAR
STARTCHAR k
ENCODING 107
SWIDTH 12480 0
DWIDTH 13 0
BBX 13 8 0 0
BITMAP
7000
3000
3000
3060
3180
3F00
30C0
3870
ENDCHAR
STARTCHAR l
ENCODING 108
SWIDTH 6720 0
DWIDTH 7 0
BBX 6 8 0 0
BITMAP
70
30
30
30
30
30
30
78
ENDCHAR
STARTCHAR m
ENCODING 109
SWIDTH 19200 0
DWIDTH 20 0
BBX 19 5 0 0
BITMAP
7FFF80
60C180
60C180
60C180
71E3C0
ENDCHAR
STARTCHAR n
ENCODING 110
SWIDTH 12480 0
DWIDTH 13 0
BBX 12 5 0 0
BITMAP
7FC0
60C0
60C0
60C0
71E0
ENDCHAR
STARTCHAR o
ENCODING 111
SWIDTH 12480 0
DWIDTH 13 0
BBX 11 5 0 0
BITMAP
3F80
C0E0
C060
E0E0
3F80
ENDCHAR
STARTCHAR p
ENCODING 112
SWIDTH 12480 0
DWIDTH 13 0
BBX 12 7 0 -2
BITMAP
3FC0
3070
3030
3070
3FC0
3000
7800
ENDCHAR
STARTCHAR q
ENCODING 113
SWIDTH 12480 0
DWIDTH 13 0
BBX 12 7 0 -2
BITMAP
3FC0
E0C0
C0C0
E0C0
7FC0
00C0
01E0
ENDCHAR
STARTCHAR r
ENCODING 114
SWIDTH 8640 0
DWIDTH 9 0
BBX 7 5 0 0
BITMAP
7E
60
60
60
70
ENDCHAR
STARTCHAR s
ENCODING 115
SWIDTH 9600 0
DWIDTH 10 0
BBX 8 5 0 0
BITMAP
7E00
C000
3E00
8300
FE00
ENDCHAR
STARTCHAR t
ENCODING 116
SWIDTH 6720 0
DWIDTH 7 0
BBX 7 6 0 0
BITMAP
30
FE
30
30
30
3E
ENDCHAR
STARTCHAR u
ENCODING 117
SWIDTH 12480 0
DWIDTH 13 0
BBX 13 5 0 0
BITMAP
70E0
3060
3060
3060
3FF0
ENDCHAR
STARTCHAR v
ENCODING 118
SWIDTH 12480 0
DWIDTH 13 0
BBX 13 5 0 0
BITMAP
7830
3860
1CC0
0F80
0300
ENDCHAR
STARTCHAR w
ENCODING 119
SWIDTH 18240 0
DWIDTH 19 0
BBX 19 5 0 0
BITMAP
7801C0
386100
18B300
0D1A00
060C00
ENDCHAR
STARTCHAR x
ENCODING 120
SWIDTH 12480 0
DWIDTH 13 0
BBX 13 5 0 0
BITMAP
3860
0D80
0700
09C0
70F0
ENDCHAR
STARTCHAR y
ENCODING 121
SWIDTH 12480 0
DWIDTH 13 0
BBX 13 7 0 -2
BITMAP
7870
1860
0CC0
0680
0300
0600
7800
ENDCHAR
STARTCHAR z
ENCODING 122
SWIDTH 11520 0
DWIDTH 12 0
BBX 10 5 0 0
BITMAP
FF80
0600
1C00
3040
FFC0
ENDCHAR
STARTCHAR braceleft
ENCODING 123
SWIDTH 11520 0
DWIDTH 12 0
BBX 8 9 0 -1
BITMAP
0F00
1800
1800
1800
F000
1800
1800
1800
0F00
ENDCHAR
STARTCHAR bar
ENCODING 124
SWIDTH 4800 0
DWIDTH 5 0
BBX 1 10 0 -2
BITMAP
80
80
80
80
80
80
80
80
80
80
ENDCHAR
STARTCHAR braceright
ENCODING 125
SWIDTH 11520 0
DWIDTH 12 0
BBX 8 9 0 -1
BITMAP
F800
1800
1800
0C00
0F00
1800
1800
1800
F800
ENDCHAR
STARTCHAR asciitilde
ENCODING 126
SWIDTH 13440 0
DWIDTH 14 0
BBX 12 2 0 3
BITMAP
7C10
83E0
ENDCHAR
STARTCHAR quotedblleft
ENCODING 8220
SWIDTH 11520 0
DWIDTH 12 0
BBX 9 3 0 5
BITMAP
3180
C200
F380
ENDCHAR
STARTCHAR quotedblright
ENCODING 8221
SWIDTH 11520 0
DWIDTH 12 0
BBX 9 3 0 5
BITMAP
7380
3080
C700
ENDCHAR
STARTCHAR quoteright
ENCODING 8217
SWIDTH 8640 0
DWIDTH 9 0
BBX 4 3 0 5
BITMAP
70
10
E0
ENDCHAR
STARTCHAR fi
ENCODING 64257
SWIDTH 13440 0
DWIDTH 14 0
BBX 13 8 0 0
BITMAP
0FC0
3000
3000
7FE0
3060
3060
3060
78F0
ENDCHAR
STARTCHAR fl
ENCODING 64258
SWIDTH 13440 0
DWIDTH 14 0
BBX 13 8 0 0
BITMAP
0FE0
3060
3060
7C60
3060
3060
3060
78F0
ENDCHAR
ENDFONT
